<?xml version="1.0" encoding="UTF-8" standalone="no"?>
<!DOCTYPE svg PUBLIC "-//W3C//DTD SVG 1.1//EN"
 "http://www.w3.org/Graphics/SVG/1.1/DTD/svg11.dtd">
<!-- Generated by graphviz version 2.40.1 (20161225.0304)
 -->
<!-- Title: %3 Pages: 1 -->
<svg width="725pt" height="493pt"
 viewBox="0.00 0.00 725.01 492.70" xmlns="http://www.w3.org/2000/svg" xmlns:xlink="http://www.w3.org/1999/xlink">
<g id="graph0" class="graph" transform="scale(1 1) rotate(0) translate(4 488.7006)">
<title>%3</title>
<polygon fill="#ffffff" stroke="transparent" points="-4,4 -4,-488.7006 721.0059,-488.7006 721.0059,4 -4,4"/>
<!-- S -->
<g id="node1" class="node">
<title>S</title>
<ellipse fill="none" stroke="#000000" cx="250.6137" cy="-466.7006" rx="93.6835" ry="18"/>
<text text-anchor="middle" x="250.6137" y="-463.0006" font-family="Times,serif" font-size="14.00" fill="#000000">SDSS images a galaxy</text>
</g>
<!-- M -->
<g id="node3" class="node">
<title>M</title>
<ellipse fill="none" stroke="#000000" cx="350.6137" cy="-385.8305" rx="171.6541" ry="26.7407"/>
<text text-anchor="middle" x="350.6137" y="-389.6305" font-family="Times,serif" font-size="14.00" fill="#000000">Multiple SDSS frames are stacked using</text>
<text text-anchor="middle" x="350.6137" y="-374.6305" font-family="Times,serif" font-size="14.00" fill="#000000">Montage (not error conserving)</text>
</g>
<!-- S&#45;&gt;M -->
<g id="edge1" class="edge">
<title>S&#45;&gt;M</title>
<path fill="none" stroke="#000000" d="M272.3123,-449.153C283.3485,-440.228 297.1276,-429.0848 310.0372,-418.6448"/>
<polygon fill="#000000" stroke="#000000" points="312.3558,-421.271 317.9306,-412.2614 307.9541,-415.8281 312.3558,-421.271"/>
</g>
<!-- 2 -->
<g id="node4" class="node">
<title>2</title>
<ellipse fill="none" stroke="#000000" cx="150.6137" cy="-296.0904" rx="150.7276" ry="26.7407"/>
<text text-anchor="middle" x="150.6137" y="-299.8904" font-family="Times,serif" font-size="14.00" fill="#000000">Multiple SDSS frames are stacked </text>
<text text-anchor="middle" x="150.6137" y="-284.8904" font-family="Times,serif" font-size="14.00" fill="#000000">directly (error conserving)</text>
</g>
<!-- S&#45;&gt;2 -->
<g id="edge2" class="edge">
<title>S&#45;&gt;2</title>
<path fill="none" stroke="#000000" d="M212.7068,-450.0064C196.9481,-441.16 179.9543,-428.7571 169.6137,-412.7006 154.5217,-389.2662 150.0984,-357.8533 149.2699,-333.5353"/>
<polygon fill="#000000" stroke="#000000" points="152.7654,-333.2007 149.1153,-323.2544 145.7662,-333.306 152.7654,-333.2007"/>
</g>
<!-- P -->
<g id="node2" class="node">
<title>P</title>
<ellipse fill="none" stroke="#000000" cx="628.6137" cy="-385.8305" rx="88.2844" ry="18"/>
<text text-anchor="middle" x="628.6137" y="-382.1305" font-family="Times,serif" font-size="14.00" fill="#000000">SDSS calculates PSF</text>
</g>
<!-- Z -->
<g id="node5" class="node">
<title>Z</title>
<ellipse fill="none" stroke="#000000" cx="428.6137" cy="-296.0904" rx="109.6807" ry="18"/>
<text text-anchor="middle" x="428.6137" y="-292.3904" font-family="Times,serif" font-size="14.00" fill="#000000">Zooniverse Subject created</text>
</g>
<!-- P&#45;&gt;Z -->
<g id="edge4" class="edge">
<title>P&#45;&gt;Z</title>
<path fill="none" stroke="#000000" d="M591.9307,-369.3708C559.2185,-354.6928 511.1502,-333.1245 475.6262,-317.1849"/>
<polygon fill="#000000" stroke="#000000" points="476.9797,-313.9561 466.4232,-313.0555 474.114,-320.3427 476.9797,-313.9561"/>
</g>
<!-- F -->
<g id="node8" class="node">
<title>F</title>
<ellipse fill="none" stroke="#000000" cx="428.6137" cy="-26.8701" rx="141.3428" ry="26.7407"/>
<text text-anchor="middle" x="428.6137" y="-30.6701" font-family="Times,serif" font-size="14.00" fill="#000000">The Aggregate model is fit using</text>
<text text-anchor="middle" x="428.6137" y="-15.6701" font-family="Times,serif" font-size="14.00" fill="#000000">computational optimization</text>
</g>
<!-- P&#45;&gt;F -->
<g id="edge5" class="edge">
<title>P&#45;&gt;F</title>
<path fill="none" stroke="#000000" d="M632.3526,-367.5076C641.5996,-316.5989 659.9892,-171.8001 589.6137,-89.7401 574.7245,-72.3788 554.4292,-59.7824 533.2669,-50.6526"/>
<polygon fill="#000000" stroke="#000000" points="534.4119,-47.3401 523.8297,-46.823 531.7797,-53.8264 534.4119,-47.3401"/>
</g>
<!-- M&#45;&gt;Z -->
<g id="edge3" class="edge">
<title>M&#45;&gt;Z</title>
<path fill="none" stroke="#000000" d="M374.0163,-358.9055C384.298,-347.0763 396.3114,-333.2548 406.4474,-321.5931"/>
<polygon fill="#000000" stroke="#000000" points="409.2019,-323.7593 413.1204,-313.9157 403.9186,-319.1672 409.2019,-323.7593"/>
</g>
<!-- 2&#45;&gt;F -->
<g id="edge9" class="edge">
<title>2&#45;&gt;F</title>
<path fill="none" stroke="#000000" d="M159.2065,-269.1386C174.373,-225.6289 209.8614,-139.7468 267.6137,-89.7401 286.3552,-73.5122 309.7683,-61.2106 332.8857,-51.9912"/>
<polygon fill="#000000" stroke="#000000" points="334.3177,-55.191 342.4111,-48.3539 331.8205,-48.6516 334.3177,-55.191"/>
</g>
<!-- V -->
<g id="node6" class="node">
<title>V</title>
<ellipse fill="none" stroke="#000000" cx="428.6137" cy="-206.3503" rx="171.6541" ry="26.7407"/>
<text text-anchor="middle" x="428.6137" y="-210.1503" font-family="Times,serif" font-size="14.00" fill="#000000">The subject is shown to Volunteers until</text>
<text text-anchor="middle" x="428.6137" y="-195.1503" font-family="Times,serif" font-size="14.00" fill="#000000">30 models have been received</text>
</g>
<!-- Z&#45;&gt;V -->
<g id="edge6" class="edge">
<title>Z&#45;&gt;V</title>
<path fill="none" stroke="#000000" d="M428.6137,-277.9302C428.6137,-268.0272 428.6137,-255.395 428.6137,-243.5075"/>
<polygon fill="#000000" stroke="#000000" points="432.1138,-243.3399 428.6137,-233.3399 425.1138,-243.34 432.1138,-243.3399"/>
</g>
<!-- A -->
<g id="node7" class="node">
<title>A</title>
<ellipse fill="none" stroke="#000000" cx="428.6137" cy="-116.6102" rx="152.0559" ry="26.7407"/>
<text text-anchor="middle" x="428.6137" y="-120.4102" font-family="Times,serif" font-size="14.00" fill="#000000">Volunteer models are clustered and</text>
<text text-anchor="middle" x="428.6137" y="-105.4102" font-family="Times,serif" font-size="14.00" fill="#000000">an &quot;Aggregate Model&quot; is created</text>
</g>
<!-- V&#45;&gt;A -->
<g id="edge7" class="edge">
<title>V&#45;&gt;A</title>
<path fill="none" stroke="#000000" d="M428.6137,-179.4253C428.6137,-171.3504 428.6137,-162.3471 428.6137,-153.7362"/>
<polygon fill="#000000" stroke="#000000" points="432.1138,-153.5161 428.6137,-143.5162 425.1138,-153.5162 432.1138,-153.5161"/>
</g>
<!-- A&#45;&gt;F -->
<g id="edge8" class="edge">
<title>A&#45;&gt;F</title>
<path fill="none" stroke="#000000" d="M428.6137,-89.6852C428.6137,-81.6102 428.6137,-72.607 428.6137,-63.9961"/>
<polygon fill="#000000" stroke="#000000" points="432.1138,-63.776 428.6137,-53.776 425.1138,-63.7761 432.1138,-63.776"/>
</g>
</g>
</svg>
